<?xml version="1.0" encoding="utf-8"?>
<!-- Generator: Adobe Illustrator 27.4.0, SVG Export Plug-In . SVG Version: 6.00 Build 0)  -->
<svg version="1.1" id="Artwork" xmlns="http://www.w3.org/2000/svg" xmlns:xlink="http://www.w3.org/1999/xlink" x="0px" y="0px"
	 width="361px" height="361px" viewBox="0 0 361 361" style="enable-background:new 0 0 361 361;" xml:space="preserve">
<style type="text/css">
	.st0{fill:url(#SVGID_1_);}
	.st1{fill:#FFFFFF;}
</style>
<g>
	<g>
		
			<linearGradient id="SVGID_1_" gradientUnits="userSpaceOnUse" x1="180" y1="250" x2="180" y2="610" gradientTransform="matrix(1 0 0 1 0 -250)">
			<stop  offset="0" style="stop-color:#D56EFC"/>
			<stop  offset="1" style="stop-color:#832BC1"/>
		</linearGradient>
		<path class="st0" d="M359.998,112.612c0-4.3,0.002-8.599-0.024-12.899c-0.022-3.622-0.064-7.243-0.162-10.864
			c-0.213-7.887-0.678-15.843-2.079-23.642c-1.423-7.92-3.746-15.291-7.409-22.486c-3.598-7.068-8.298-13.534-13.906-19.142
			c-5.608-5.608-12.076-10.309-19.145-13.908c-7.191-3.661-14.559-5.983-22.474-7.406c-7.802-1.403-15.761-1.867-23.651-2.081
			c-3.621-0.098-7.242-0.14-10.864-0.162C255.985-0.002,251.685,0,247.385,0H112.613c-4.3,0-8.599-0.002-12.899,0.024
			c-3.622,0.022-7.243,0.064-10.864,0.162c-7.89,0.213-15.849,0.678-23.651,2.081C57.284,3.69,49.917,6.012,42.725,9.673
			c-7.069,3.598-13.537,8.299-19.145,13.908c-5.607,5.608-10.308,12.074-13.906,19.142c-3.663,7.195-5.986,14.566-7.409,22.486
			C0.864,73.007,0.399,80.963,0.186,88.85c-0.098,3.621-0.14,7.242-0.162,10.864C-0.002,104.012,0,108.312,0,112.612v134.774
			c0,4.3-0.002,8.599,0.024,12.899c0.022,3.622,0.064,7.243,0.162,10.864c0.213,7.887,0.678,15.843,2.079,23.642
			c1.423,7.92,3.746,15.291,7.409,22.486c3.598,7.068,8.299,13.534,13.906,19.142c5.608,5.608,12.076,10.309,19.145,13.908
			c7.192,3.661,14.558,5.983,22.474,7.406c7.802,1.403,15.761,1.867,23.651,2.081c3.621,0.098,7.242,0.14,10.864,0.162
			c4.3,0.026,8.599,0.024,12.899,0.024h134.775c4.3,0,8.599,0.002,12.899-0.024c3.622-0.022,7.243-0.064,10.864-0.162
			c7.89-0.213,15.849-0.678,23.651-2.081c7.915-1.423,15.282-3.745,22.474-7.406c7.069-3.598,13.537-8.299,19.145-13.908
			c5.607-5.608,10.308-12.074,13.906-19.142c3.663-7.195,5.986-14.566,7.409-22.486c1.401-7.799,1.866-15.755,2.079-23.642
			c0.098-3.621,0.14-7.242,0.162-10.864c0.026-4.3,0.024-8.599,0.024-12.899L359.998,112.612L359.998,112.612z"/>
	</g>
	<path class="st1" d="M179.884,130.919c14.878,0,26.939,12.057,26.939,26.93c0,14.873-12.061,26.93-26.939,26.93
		c-14.878,0-26.938-12.057-26.938-26.93C152.948,142.976,165.008,130.919,179.884,130.919z M257.427,167.29
		c0,26.577-13.451,50.069-33.902,64.041c-1.042,0.712-2.455-0.093-2.377-1.352c0.287-4.726,0.375-8.91,0.132-13.217
		c-0.08-1.416,0.476-2.794,1.51-3.765c12.196-11.447,19.827-27.702,19.827-45.707c0-35.401-29.496-64.046-65.21-62.663
		c-32.861,1.273-59.364,28.117-60.23,60.98c-0.492,18.674,7.23,35.589,19.807,47.393c1.033,0.97,1.587,2.348,1.508,3.762
		c-0.242,4.307-0.154,8.49,0.134,13.219c0.076,1.257-1.333,2.064-2.373,1.354c-20.713-14.147-34.247-38.06-33.902-65.054
		c0.526-41.042,33.441-74.859,74.469-76.448C220.965,88.123,257.427,123.529,257.427,167.29z M179.55,51.579
		c63.978-0.181,116.084,51.797,116.084,115.712c0,50.388-32.387,93.348-77.442,109.19c-1.104,0.389-2.225-0.529-2.051-1.686
		c0.597-3.958,1.159-7.937,1.675-11.85c0.183-1.382,1.058-2.578,2.337-3.136c35.674-15.577,60.67-51.182,60.67-92.519
		c0-55.916-45.732-101.355-101.769-100.902c-54.816,0.443-99.576,45.115-100.104,99.913c-0.403,41.756,24.704,77.804,60.658,93.505
		c1.279,0.558,2.161,1.751,2.343,3.134c0.517,3.913,1.08,7.895,1.676,11.855c0.174,1.158-0.947,2.075-2.052,1.686
		c-45.489-15.995-78.065-59.635-77.433-110.651C64.927,102.852,116.55,51.758,179.55,51.579z M179.885,195.661
		c10.242,0,18.918,3.34,23.856,8.549c2.578,2.719,3.941,5.506,4.37,9.476c0.831,7.688,0.364,14.308-0.537,24.892
		c-0.858,10.085-2.487,23.533-4.615,37.23c-1.513,9.748-2.743,15.009-3.863,18.776c-1.816,6.105-8.601,11.446-19.211,11.446
		s-17.396-5.341-19.211-11.446c-1.12-3.767-2.35-9.028-3.864-18.776c-2.127-13.697-3.756-27.145-4.615-37.23
		c-0.901-10.584-1.368-17.203-0.537-24.892c0.429-3.97,1.792-6.757,4.37-9.476C160.968,199.001,169.644,195.661,179.885,195.661z"/>
</g>
</svg>
