<?xml version="1.0" encoding="UTF-8"?>
<!-- Generator: Adobe Illustrator 22.0.1, SVG Export Plug-In . SVG Version: 6.00 Build 0)  -->
<svg version="1.1" id="レイヤー_1" xmlns="http://www.w3.org/2000/svg" xmlns:xlink="http://www.w3.org/1999/xlink" x="0px" y="0px" viewBox="0 0 54.5 13.9" style="enable-background:new 0 0 54.5 13.9;" xml:space="preserve" width="220px" height="56.25px">
<style type="text/css">
	.st0{fill:#0099DD;}
</style>
<title>radiko_logo2.svg</title>
<g id="radiko.jp_logo">
	<g id="radiko.jp">
		<rect x="30.7" y="4.6" class="st0" width="2.5" height="9.1"/>
		<path class="st0" d="M49.7,4.4c-2.6,0-4.8,2.1-4.8,4.8s2.1,4.8,4.8,4.8s4.8-2.1,4.8-4.8S52.4,4.4,49.7,4.4L49.7,4.4z M49.8,11.4    c-1.2,0-2.2-1-2.2-2.2c0-1.2,1-2.2,2.2-2.2S52,8,52,9.2v0C52,10.4,51,11.4,49.8,11.4z"/>
		<path class="st0" d="M2.5,5.8V4.6H0v9.2h2.5v-3.4C2.7,8.4,4.3,7,6.2,7V4.6C4.9,4.6,3.6,5,2.5,5.8z"/>
		<path class="st0" d="M33.3,1.4c0,0.8-0.6,1.4-1.4,1.4c-0.8,0-1.4-0.6-1.4-1.4c0-0.8,0.6-1.4,1.4-1.4C32.7,0,33.3,0.6,33.3,1.4    C33.3,1.4,33.3,1.4,33.3,1.4z"/>
		<path class="st0" d="M16.9,9.2c0-2.6-2.1-4.8-4.8-4.8c-2.6,0-4.8,2.1-4.8,4.8c0,2.6,2.1,4.8,4.8,4.8c0.8,0,1.6-0.2,2.2-0.6v0.4    h2.5V9.2z M12.2,11.4c-1.2,0-2.2-1-2.2-2.2S11,7,12.2,7s2.2,1,2.2,2.2c0,0,0,0,0,0C14.4,10.4,13.4,11.4,12.2,11.4z"/>
		<path class="st0" d="M27.9,0.1h-2.5V5c-2.3-1.3-5.2-0.4-6.5,1.9s-0.4,5.2,1.9,6.5c1.4,0.8,3.1,0.8,4.5,0v0.4h2.5V0.1z M23.2,11.4    c-1.2,0-2.2-1-2.2-2.2c0-1.2,1-2.2,2.2-2.2c1.2,0,2.2,1,2.2,2.2v0C25.4,10.4,24.4,11.4,23.2,11.4z"/>
		<path class="st0" d="M41.9,9c1-1,1.5-2.3,1.5-3.7c0-0.2,0-0.4-0.1-0.7H41C41,4.8,41,5,41,5.2c0,1.5-1.1,2.7-2.6,2.8V0.1h-2.5v13.7    h2.5v-3.2H39c1.5,0,2.8,1.3,2.8,2.8c0,0.1,0,0.3,0,0.4h2.5c0-0.1,0-0.3,0-0.4C44.2,11.6,43.3,9.9,41.9,9z"/>
	</g>
</g>
</svg>