<svg id="グループ_3849" data-name="グループ 3849" xmlns="http://www.w3.org/2000/svg" width="123.836" height="66.126" viewBox="0 0 123.836 66.126">
  <g id="audee_logo02" transform="translate(0 0)">
    <path id="パス_4536" data-name="パス 4536" d="M510.13,316.38a4.312,4.312,0,0,0,.159-1.163v-1.4c0-4.935-3.394-12.276-12.744-12.276a12.344,12.344,0,0,0-9.9,4.908,13,13,0,0,0-17.8-2.441c-.019-1.608-.035-3.443-.035-5.381,0-4.44-1.314-7.993-3.9-10.56-4.351-4.309-11-4.309-14.57-4.309-.627,0-1.256.006-1.891.011l-.177,0h-.028c-.51,0-1.018.009-1.52.009h-1.4a4.335,4.335,0,0,0-4.33,4.33v19.88a12.906,12.906,0,0,0-6.529-2.5V288.11a4.336,4.336,0,0,0-4.331-4.33h-1.4c-3.863,0-11.142,2.6-13.924,12.337a88.123,88.123,0,0,1-3.121,9.162H401.219a15.133,15.133,0,0,0-10.325,3.851,12.626,12.626,0,0,0-4.18,9.2c0,5.839,4.34,11.731,14.037,11.731,7.618,0,14.058-4.479,19.166-13.32H424v8.99a4.335,4.335,0,0,0,4.331,4.33h2.8a4.336,4.336,0,0,0,4.331-4.33v-.645a8.838,8.838,0,0,0,8.522,5.209,9.908,9.908,0,0,0,5.124-1.281,4.313,4.313,0,0,0,2.821,1.047h1.4c4.341,0,9.234-.461,12.611-3.881a11.48,11.48,0,0,0,1.146-1.352q.1.136.2.268a12.421,12.421,0,0,0,10,4.732,12.626,12.626,0,0,0,10.271-4.716,12.423,12.423,0,0,0,9.985,4.716,12.622,12.622,0,0,0,12.936-10.891l.041-.346A3.872,3.872,0,0,0,510.13,316.38Z" transform="translate(-386.714 -264.171)" fill="#13307f"/>
    <path id="パス_4537" data-name="パス 4537" d="M718.593,269a3.681,3.681,0,0,1-3.384-5.131,10.426,10.426,0,0,0-5.686-13.756,3.682,3.682,0,0,1-.8-6.373l2.461-1.821a3.656,3.656,0,0,1,2.19-.723,3.7,3.7,0,0,1,1.7.414,20.494,20.494,0,0,1,9.888,24.924A3.685,3.685,0,0,1,721.481,269Z" transform="translate(-618.078 -233.451)" fill="#173174"/>
    <path id="パス_4538" data-name="パス 4538" d="M717.737,254.73a13.191,13.191,0,0,1,7.187,17.407.917.917,0,0,0,.843,1.277h2.888a.917.917,0,0,0,.865-.614,17.729,17.729,0,0,0-8.551-21.556.924.924,0,0,0-.424-.1.911.911,0,0,0-.545.18l-2.463,1.823a.917.917,0,0,0,.2,1.586Z" transform="translate(-625.251 -240.627)" fill="#f29f22"/>
    <path id="パス_4539" data-name="パス 4539" d="M751.818,248.894a3.682,3.682,0,0,1-3.408-5.075,16.207,16.207,0,0,0-9.562-21.392,3.681,3.681,0,0,1-1.074-6.337l2.406-1.935a3.717,3.717,0,0,1,2.308-.812,3.65,3.65,0,0,1,1.5.318,26.251,26.251,0,0,1,14.179,32.783,3.7,3.7,0,0,1-3.47,2.451Z" transform="translate(-639.136 -213.342)" fill="#173174"/>
    <path id="パス_4540" data-name="パス 4540" d="M746.948,227a19,19,0,0,1,12.6,17.863,18.805,18.805,0,0,1-1.408,7.18.918.918,0,0,0,.849,1.265h2.876a.921.921,0,0,0,.865-.611,23.487,23.487,0,0,0-12.7-29.333.907.907,0,0,0-.371-.079.928.928,0,0,0-.575.2l-2.406,1.935a.916.916,0,0,0,.267,1.577Z" transform="translate(-646.311 -220.517)" fill="#f95e16"/>
    <path id="パス_4541" data-name="パス 4541" d="M515.88,326.688a.459.459,0,0,0-.343-.154h-3.752a.458.458,0,0,0-.452.38c-.151.874-.954,3.723-4.93,3.723a4.418,4.418,0,0,1-3.669-1.657,5.866,5.866,0,0,1-1.02-2.107,7.536,7.536,0,0,1-.186-.9,8.505,8.505,0,0,1-.083-.984h13.371a.918.918,0,0,0,.917-.917v-1.4c0-3.065-1.95-8.863-9.33-8.863a9.373,9.373,0,0,0-8.814,6.543h-2.439c-.6-2.221-2.6-6.543-9-6.543a9.373,9.373,0,0,0-8.815,6.543h-1.983c.012-1.744-.012-3.695-.037-5.75l0-.2c-.025-2.048-.054-4.369-.054-6.918,0-3.5-.974-6.233-2.894-8.135-3.093-3.063-7.9-3.32-12.167-3.32-.62,0-1.242.006-1.869.012h-.166c-.531,0-1.06.009-1.581.009h-1.4a.918.918,0,0,0-.917.917v29.21c0,4.925-.245,4.925-1.42,4.925-1.1,0-1.771,0-1.771-5.276,0-6.651-3.877-8.147-10.165-8.269V296.969a.918.918,0,0,0-.917-.917h-1.4c-.32,0-7.857.112-10.642,9.861a84.672,84.672,0,0,1-4.159,11.638H410.078a11.733,11.733,0,0,0-8.012,2.949,9.207,9.207,0,0,0-3.079,6.692c0,3.837,2.782,8.318,10.623,8.318,6.756,0,12.524-4.481,17.148-13.32h9.51v12.4a.918.918,0,0,0,.917.917h2.8a.918.918,0,0,0,.917-.917v-12.4c4.394.038,5.527.478,5.527,3.637,0,3.464,0,9.914,6.409,9.914,6.058,0,6.058-5.081,6.058-9.564V300.673c.42,0,.841-.006,1.26-.006,3.359,0,7.1.153,8.94,1.978,1.023,1.013,1.52,2.6,1.52,4.84,0,2.561.03,4.921.055,7l0,.119c.025,1.964.05,3.99.037,5.748h-4.551c-2.2,0-6.292,0-6.292,4.656v9.581a.918.918,0,0,0,.917.917h1.4c5.222,0,8.172-.831,10.183-2.867,1.645-1.667,2.467-3.9,2.8-7.649h1.383a11.389,11.389,0,0,0,2.283,6.854,8.959,8.959,0,0,0,7.314,3.428,9.137,9.137,0,0,0,9.547-7.885l.041-.343a.459.459,0,0,0-.455-.513h-3.752a.458.458,0,0,0-.452.379c-.152.874-.958,3.724-4.929,3.724a4.416,4.416,0,0,1-3.669-1.657,6.72,6.72,0,0,1-1.29-3.987h15.617c.008.374.035.766.085,1.215.033.293.076.582.127.866a10.824,10.824,0,0,0,2.07,4.773,8.959,8.959,0,0,0,7.314,3.428,9.138,9.138,0,0,0,9.547-7.885l.041-.343A.458.458,0,0,0,515.88,326.688Zm-13.13-6.333a4.817,4.817,0,0,1,7.68,0Zm-16.6-1.905a4.328,4.328,0,0,1,4.026,1.905h-7.68A4.333,4.333,0,0,1,486.148,318.449Zm-21.64,6.608a15.115,15.115,0,0,1,1.654-.065h4.346c-.234,2.237-.693,3.639-1.436,4.39-.786.8-2.243,1.25-4.563,1.415Zm-35.6-7.507a93.776,93.776,0,0,0,3.492-10.364c.93-3.255,2.512-4.885,3.864-5.7V317.55Zm-19.3,13.32c-3.692,0-5.985-1.41-5.985-3.68,0-2.406,2.467-5,6.453-5h11.294C417.9,327.951,413.949,330.87,409.61,330.87Z" transform="translate(-395.573 -273.03)" fill="#fff"/>
    <path id="パス_4542" data-name="パス 4542" d="M684.657,288.3a3.682,3.682,0,0,1-3.4-5.1,4.7,4.7,0,0,0,.369-1.809,4.767,4.767,0,0,0-3.162-4.483,3.682,3.682,0,0,1-.953-6.43l2.473-1.83a3.68,3.68,0,0,1,3.946-.276,14.808,14.808,0,0,1,7.114,17.311,3.658,3.658,0,0,1-3.523,2.613Z" transform="translate(-595.546 -252.746)" fill="#173174"/>
    <path id="パス_4543" data-name="パス 4543" d="M686.572,281.482a7.538,7.538,0,0,1,5,7.088,7.454,7.454,0,0,1-.581,2.87.917.917,0,0,0,.846,1.269H694.7a.91.91,0,0,0,.877-.651,12.042,12.042,0,0,0-5.787-14.077.92.92,0,0,0-.437-.111.91.91,0,0,0-.545.18l-2.475,1.832a.917.917,0,0,0,.237,1.6Z" transform="translate(-602.727 -259.922)" fill="#f9cc16"/>
  </g>
</svg>
