<?xml version="1.0" encoding="UTF-8"?>
<!DOCTYPE svg PUBLIC "-//W3C//DTD SVG 1.1//EN" "http://www.w3.org/Graphics/SVG/1.1/DTD/svg11.dtd">
<svg xmlns="http://www.w3.org/2000/svg" version="1.1" width="600px" height="600px" style="shape-rendering:geometricPrecision; text-rendering:geometricPrecision; image-rendering:optimizeQuality; fill-rule:evenodd; clip-rule:evenodd" xmlns:xlink="http://www.w3.org/1999/xlink">
<g><path style="opacity:0.995" fill="#fefefe" d="M 274.5,-0.5 C 291.167,-0.5 307.833,-0.5 324.5,-0.5C 440.021,13.2273 523.187,72.2273 574,176.5C 587.536,207.982 596.036,240.648 599.5,274.5C 599.5,291.167 599.5,307.833 599.5,324.5C 585.777,440.017 526.777,523.184 422.5,574C 391.018,587.536 358.352,596.036 324.5,599.5C 307.833,599.5 291.167,599.5 274.5,599.5C 158.979,585.773 75.8125,526.773 25,422.5C 11.4641,391.018 2.9641,358.352 -0.5,324.5C -0.5,307.833 -0.5,291.167 -0.5,274.5C 13.2273,158.979 72.2273,75.8125 176.5,25C 207.982,11.4641 240.648,2.9641 274.5,-0.5 Z"/></g>
<g><path style="opacity:1" fill="#010101" d="M 456.5,149.5 C 457.933,150.833 459.267,152.333 460.5,154C 445.307,165.36 429.973,176.527 414.5,187.5C 413.369,189.074 413.202,190.741 414,192.5C 436.535,261.105 458.868,329.771 481,398.5C 491.418,399.487 501.918,399.82 512.5,399.5C 512.5,405.167 512.5,410.833 512.5,416.5C 370.833,416.667 229.166,416.5 87.5,416C 210.567,327.145 333.567,238.312 456.5,149.5 Z"/></g>
<g><path style="opacity:1" fill="#fcfcfc" d="M 382.5,260.5 C 396.42,259.377 407.586,264.377 416,275.5C 426.442,290.946 430.109,307.946 427,326.5C 425.279,340.441 419.446,352.274 409.5,362C 395.833,372 382.167,372 368.5,362C 349.638,340.323 345.138,315.823 355,288.5C 360.379,275.289 369.546,265.956 382.5,260.5 Z"/></g>
<g><path style="opacity:1" fill="#050505" d="M 392.5,270.5 C 404.653,271.995 410.987,278.995 411.5,291.5C 411.488,302.904 406.155,310.238 395.5,313.5C 384.592,310.387 379.592,303.054 380.5,291.5C 380.135,281.886 384.135,274.886 392.5,270.5 Z"/></g>
<g><path style="opacity:1" fill="#fcfcfc" d="M 293.5,286.5 C 312.836,285.652 326.003,294.318 333,312.5C 340.745,334.99 338.412,356.323 326,376.5C 311.517,393.359 295.683,394.859 278.5,381C 262.977,361.002 259.143,338.835 267,314.5C 271.648,301.023 280.481,291.69 293.5,286.5 Z"/></g>
<g><path style="opacity:1" fill="#050505" d="M 304.5,298.5 C 316.854,299.191 323.187,305.858 323.5,318.5C 323.253,325.751 320.586,331.918 315.5,337C 307.946,341.323 301.779,339.823 297,332.5C 290.319,318.837 292.819,307.504 304.5,298.5 Z"/></g>
</svg>
